[STREAM]
index=0
codec_name=unknown
profile=unknown
codec_type=data
codec_tag_string=[0][0][0][0]
codec_tag=0x0000
id=N/A
r_frame_rate=0/0
avg_frame_rate=0/0
time_base=1/90000
start_pts=0
start_time=0.000000
duration_ts=22523
duration=0.250256
bit_rate=N/A
max_bit_rate=N/A
bits_per_raw_sample=N/A
nb_frames=N/A
nb_read_frames=N/A
nb_read_packets=N/A
DISPOSITION:default=0
DISPOSITION:dub=0
DISPOSITION:original=0
DISPOSITION:comment=0
DISPOSITION:lyrics=0
DISPOSITION:karaoke=0
DISPOSITION:forced=0
DISPOSITION:hearing_impaired=0
DISPOSITION:visual_impaired=0
DISPOSITION:clean_effects=0
DISPOSITION:attached_pic=0
DISPOSITION:timed_thumbnails=0
TAG:file_package_umid=0x060A2B340101010101010F001300000057DEEA25B7D80C94060E2B347F7F2A80
TAG:data_type=audio
[/STREAM]
[STREAM]
index=1
codec_name=unknown
profile=unknown
codec_type=data
codec_tag_string=[0][0][0][0]
codec_tag=0x0000
id=N/A
r_frame_rate=0/0
avg_frame_rate=0/0
time_base=1/90000
start_pts=0
start_time=0.000000
duration_ts=22523
duration=0.250256
bit_rate=N/A
max_bit_rate=N/A
bits_per_raw_sample=N/A
nb_frames=N/A
nb_read_frames=N/A
nb_read_packets=N/A
DISPOSITION:default=0
DISPOSITION:dub=0
DISPOSITION:original=0
DISPOSITION:comment=0
DISPOSITION:lyrics=0
DISPOSITION:karaoke=0
DISPOSITION:forced=0
DISPOSITION:hearing_impaired=0
DISPOSITION:visual_impaired=0
DISPOSITION:clean_effects=0
DISPOSITION:attached_pic=0
DISPOSITION:timed_thumbnails=0
TAG:file_package_umid=0x060A2B340101010101010F001300000057DEEA25B7F40C94060E2B347F7F2A80
TAG:data_type=audio
[/STREAM]
[STREAM]
index=2
codec_name=unknown
profile=unknown
codec_type=data
codec_tag_string=[0][0][0][0]
codec_tag=0x0000
id=N/A
r_frame_rate=0/0
avg_frame_rate=0/0
time_base=1/90000
start_pts=0
start_time=0.000000
duration_ts=22523
duration=0.250256
bit_rate=N/A
max_bit_rate=N/A
bits_per_raw_sample=N/A
nb_frames=N/A
nb_read_frames=N/A
nb_read_packets=N/A
DISPOSITION:default=0
DISPOSITION:dub=0
DISPOSITION:original=0
DISPOSITION:comment=0
DISPOSITION:lyrics=0
DISPOSITION:karaoke=0
DISPOSITION:forced=0
DISPOSITION:hearing_impaired=0
DISPOSITION:visual_impaired=0
DISPOSITION:clean_effects=0
DISPOSITION:attached_pic=0
DISPOSITION:timed_thumbnails=0
TAG:file_package_umid=0x060A2B340101010101010F001300000057DEEA25B8050C94060E2B347F7F2A80
TAG:data_type=video
[/STREAM]
[STREAM]
index=3
codec_name=dnxhd
profile=1
codec_type=video
codec_time_base=0/1
codec_tag_string=[0][0][0][0]
codec_tag=0x0000
width=640
height=480
coded_width=640
coded_height=480
closed_captions=0
has_b_frames=0
sample_aspect_ratio=1:1
display_aspect_ratio=4:3
pix_fmt=yuv422p
level=-99
color_range=tv
color_space=bt709
color_transfer=bt709
color_primaries=bt709
chroma_location=unspecified
field_order=progressive
timecode=N/A
refs=1
id=N/A
r_frame_rate=24000/1001
avg_frame_rate=0/0
time_base=1001/24000
start_pts=0
start_time=0.000000
duration_ts=6
duration=0.250250
bit_rate=N/A
max_bit_rate=N/A
bits_per_raw_sample=8
nb_frames=N/A
nb_read_frames=N/A
nb_read_packets=N/A
DISPOSITION:default=0
DISPOSITION:dub=0
DISPOSITION:original=0
DISPOSITION:comment=0
DISPOSITION:lyrics=0
DISPOSITION:karaoke=0
DISPOSITION:forced=0
DISPOSITION:hearing_impaired=0
DISPOSITION:visual_impaired=0
DISPOSITION:clean_effects=0
DISPOSITION:attached_pic=0
DISPOSITION:timed_thumbnails=0
TAG:file_package_umid=0x060A2B340101010101010F001300000057DEEA25B84D0C94060E2B347F7F2A80
TAG:file_package_name=dnxhr_export.aaf
TAG:reel_umid=0x060A2B340101010101010F001300000057DEEA1570895313060E2B347F7F2A80
TAG:reel_name=sample_footage
TAG:timecode=01:00:00:00
[/STREAM]
[FORMAT]
format_name=mxf
duration=0.250250
bit_rate=25340195
TAG:operational_pattern_ul=060e2b34.04010102.0d010201.10030000
TAG:project_name=UHD
TAG:uid=784c8132-ae36-ed4d-b0ff-2edf1f3f2d92
TAG:generation_uid=b6bcfcab-70ff-7331-c47c-478869de11d2
TAG:application_platform=AAFSDK (MacOS X)
TAG:modification_date=2016-09-18T19:25:25.000000Z
TAG:product_uid=acfbf03a-4f42-a231-d0b7-c06ecd3d4ad7
TAG:product_version=Unknown version
TAG:product_name=Avid Media Composer 8.6.3.43955
TAG:company_name=Avid Technology, Inc.
TAG:material_package_umid=0x060A2B340101010101010F001300000057DEEA1570665313060E2B347F7F2A80
TAG:material_package_name=sample_footage
TAG:comment_UNC Path=/Users/mark/Dev/pyaaf/example/work/dnxhr_export.aaf
[/FORMAT]
